<?plantuml 1.2026.2?><svg xmlns="http://www.w3.org/2000/svg" xmlns:xlink="http://www.w3.org/1999/xlink" contentStyleType="text/css" data-diagram-type="CLASS" height="784px" preserveAspectRatio="none" style="width:700px;height:784px;background:#FFFFFF;" version="1.1" viewBox="0 0 700 784" width="700px" zoomAndPan="magnify"><defs/><g><!--class RequestStatus--><g class="entity" data-qualified-name="RequestStatus" data-source-line="4" id="ent0002"><rect fill="#F1F1F1" height="96.8906" rx="2.5" ry="2.5" style="stroke:#181818;stroke-width:0.5;" width="134.1084" x="7" y="88.5"/><ellipse cx="22" cy="104.5" fill="#ABABAB" rx="11" ry="11" style="stroke:#181818;stroke-width:1;"/><path d="M26.1094,110.5 L18.3906,110.5 L18.3906,98.1094 L26.1094,98.1094 L26.1094,100.2656 L20.8438,100.2656 L20.8438,102.9375 L25.6094,102.9375 L25.6094,105.0938 L20.8438,105.0938 L20.8438,108.3438 L26.1094,108.3438 L26.1094,110.5 Z " fill="#000000"/><text fill="#000000" font-family="sans-serif" font-size="14" lengthAdjust="spacing" textLength="102.1084" x="36" y="109.3467">RequestStatus</text><line style="stroke:#181818;stroke-width:0.5;" x1="8" x2="140.1084" y1="120.5" y2="120.5"/><text fill="#000000" font-family="sans-serif" font-size="14" lengthAdjust="spacing" textLength="56.4648" x="13" y="137.4951">Pending</text><text fill="#000000" font-family="sans-serif" font-size="14" lengthAdjust="spacing" textLength="65.4609" x="13" y="153.792">Accepted</text><text fill="#000000" font-family="sans-serif" font-size="14" lengthAdjust="spacing" textLength="61.2432" x="13" y="170.0889">Declined</text><line style="stroke:#181818;stroke-width:0.5;" x1="8" x2="140.1084" y1="177.3906" y2="177.3906"/></g><!--class User--><g class="entity" data-qualified-name="User" data-source-line="10" id="ent0003"><rect fill="#F1F1F1" height="259.8594" rx="2.5" ry="2.5" style="stroke:#181818;stroke-width:0.5;" width="360.0381" x="176" y="7"/><ellipse cx="335.814" cy="23" fill="#C2C2C2" rx="11" ry="11" style="stroke:#181818;stroke-width:1;"/><path d="M338.7827,28.6406 Q338.2046,28.9375 337.564,29.0781 Q336.9233,29.2344 336.2202,29.2344 Q333.7202,29.2344 332.3921,27.5938 Q331.0796,25.9375 331.0796,22.8125 Q331.0796,19.6875 332.3921,18.0313 Q333.7202,16.375 336.2202,16.375 Q336.9233,16.375 337.564,16.5313 Q338.2202,16.6875 338.7827,16.9844 L338.7827,19.7031 Q338.1577,19.125 337.564,18.8594 Q336.9702,18.5781 336.3452,18.5781 Q335.0015,18.5781 334.314,19.6563 Q333.6265,20.7188 333.6265,22.8125 Q333.6265,24.9063 334.314,25.9844 Q335.0015,27.0469 336.3452,27.0469 Q336.9702,27.0469 337.564,26.7813 Q338.1577,26.5 338.7827,25.9219 L338.7827,28.6406 Z " fill="#000000"/><text fill="#000000" font-family="sans-serif" font-size="14" lengthAdjust="spacing" textLength="31.9102" x="356.314" y="27.8467">User</text><line style="stroke:#181818;stroke-width:0.5;" x1="177" x2="535.0381" y1="39" y2="39"/><text fill="#000000" font-family="sans-serif" font-size="14" lengthAdjust="spacing" textLength="70.8613" x="182" y="55.9951">+Id : Guid</text><text fill="#000000" font-family="sans-serif" font-size="14" lengthAdjust="spacing" textLength="137.1494" x="182" y="72.292">+Username : string</text><text fill="#000000" font-family="sans-serif" font-size="14" lengthAdjust="spacing" textLength="129.6504" x="182" y="88.5889">+ProfilePic : string</text><text fill="#000000" font-family="sans-serif" font-size="14" lengthAdjust="spacing" textLength="144.0059" x="182" y="104.8857">+ProfileDesc : string</text><text fill="#000000" font-family="sans-serif" font-size="14" lengthAdjust="spacing" textLength="140.1572" x="182" y="121.1826">+Posts : List&lt;Post&gt;</text><text fill="#000000" font-family="sans-serif" font-size="14" lengthAdjust="spacing" textLength="315.5742" x="182" y="137.4795">+SentFriendRequests : List&lt;FriendRequest&gt;</text><text fill="#000000" font-family="sans-serif" font-size="14" lengthAdjust="spacing" textLength="348.0381" x="182" y="153.7764">+ReceivedFriendRequests : List&lt;FriendRequest&gt;</text><line style="stroke:#181818;stroke-width:1;" x1="177" x2="535.0381" y1="161.0781" y2="161.0781"/><text fill="#000000" font-family="sans-serif" font-size="14" lengthAdjust="spacing" textLength="80.9238" x="182" y="178.0732">+Register()</text><text fill="#000000" font-family="sans-serif" font-size="14" lengthAdjust="spacing" textLength="60.6689" x="182" y="194.3701">+Login()</text><text fill="#000000" font-family="sans-serif" font-size="14" lengthAdjust="spacing" textLength="257.7832" x="182" y="210.667">+SendFriendRequest(receiver: User)</text><text fill="#000000" font-family="sans-serif" font-size="14" lengthAdjust="spacing" textLength="336.4443" x="182" y="226.9639">+AcceptFriendRequest(request: FriendRequest)</text><text fill="#000000" font-family="sans-serif" font-size="14" lengthAdjust="spacing" textLength="340.8398" x="182" y="243.2607">+DeclineFriendRequest(request: FriendRequest)</text><text fill="#000000" font-family="sans-serif" font-size="14" lengthAdjust="spacing" textLength="195.7813" x="182" y="259.5576">+RemoveFriend(user: User)</text></g><!--class FriendRequest--><g class="entity" data-qualified-name="FriendRequest" data-source-line="27" id="ent0004"><rect fill="#F1F1F1" height="129.4844" rx="2.5" ry="2.5" style="stroke:#181818;stroke-width:0.5;" width="184.0674" x="58" y="393"/><ellipse cx="95.7246" cy="409" fill="#C2C2C2" rx="11" ry="11" style="stroke:#181818;stroke-width:1;"/><path d="M98.6933,414.6406 Q98.1152,414.9375 97.4746,415.0781 Q96.8339,415.2344 96.1308,415.2344 Q93.6308,415.2344 92.3027,413.5938 Q90.9902,411.9375 90.9902,408.8125 Q90.9902,405.6875 92.3027,404.0313 Q93.6308,402.375 96.1308,402.375 Q96.8339,402.375 97.4746,402.5313 Q98.1308,402.6875 98.6933,402.9844 L98.6933,405.7031 Q98.0683,405.125 97.4746,404.8594 Q96.8808,404.5781 96.2558,404.5781 Q94.9121,404.5781 94.2246,405.6563 Q93.5371,406.7188 93.5371,408.8125 Q93.5371,410.9063 94.2246,411.9844 Q94.9121,413.0469 96.2558,413.0469 Q96.8808,413.0469 97.4746,412.7813 Q98.0683,412.5 98.6933,411.9219 L98.6933,414.6406 Z " fill="#000000"/><text fill="#000000" font-family="sans-serif" font-size="14" lengthAdjust="spacing" textLength="101.5684" x="114.7745" y="413.8467">FriendRequest</text><line style="stroke:#181818;stroke-width:0.5;" x1="59" x2="241.0674" y1="425" y2="425"/><text fill="#000000" font-family="sans-serif" font-size="14" lengthAdjust="spacing" textLength="70.8613" x="64" y="441.9951">+Id : Guid</text><text fill="#000000" font-family="sans-serif" font-size="14" lengthAdjust="spacing" textLength="120.4902" x="64" y="458.292">+SenderId : Guid</text><text fill="#000000" font-family="sans-serif" font-size="14" lengthAdjust="spacing" textLength="132.0566" x="64" y="474.5889">+ReceiverId : Guid</text><text fill="#000000" font-family="sans-serif" font-size="14" lengthAdjust="spacing" textLength="172.0674" x="64" y="490.8857">+Status : RequestStatus</text><text fill="#000000" font-family="sans-serif" font-size="14" lengthAdjust="spacing" textLength="140.4307" x="64" y="507.1826">+SentAt : DateTime</text><line style="stroke:#181818;stroke-width:0.5;" x1="59" x2="241.0674" y1="514.4844" y2="514.4844"/></g><!--class Post--><g class="entity" data-qualified-name="Post" data-source-line="35" id="ent0005"><rect fill="#F1F1F1" height="227.2656" rx="2.5" ry="2.5" style="stroke:#181818;stroke-width:0.5;" width="274.8691" x="289.5" y="344"/><ellipse cx="407.7891" cy="360" fill="#C2C2C2" rx="11" ry="11" style="stroke:#181818;stroke-width:1;"/><path d="M410.7578,365.6406 Q410.1797,365.9375 409.5391,366.0781 Q408.8984,366.2344 408.1953,366.2344 Q405.6953,366.2344 404.3672,364.5938 Q403.0547,362.9375 403.0547,359.8125 Q403.0547,356.6875 404.3672,355.0313 Q405.6953,353.375 408.1953,353.375 Q408.8984,353.375 409.5391,353.5313 Q410.1953,353.6875 410.7578,353.9844 L410.7578,356.7031 Q410.1328,356.125 409.5391,355.8594 Q408.9453,355.5781 408.3203,355.5781 Q406.9766,355.5781 406.2891,356.6563 Q405.6016,357.7188 405.6016,359.8125 Q405.6016,361.9063 406.2891,362.9844 Q406.9766,364.0469 408.3203,364.0469 Q408.9453,364.0469 409.5391,363.7813 Q410.1328,363.5 410.7578,362.9219 L410.7578,365.6406 Z " fill="#000000"/><text fill="#000000" font-family="sans-serif" font-size="14" lengthAdjust="spacing" textLength="29.791" x="428.2891" y="364.8467">Post</text><line style="stroke:#181818;stroke-width:0.5;" x1="290.5" x2="563.3691" y1="376" y2="376"/><text fill="#000000" font-family="sans-serif" font-size="14" lengthAdjust="spacing" textLength="70.8613" x="295.5" y="392.9951">+Id : Guid</text><text fill="#000000" font-family="sans-serif" font-size="14" lengthAdjust="spacing" textLength="104.3916" x="295.5" y="409.292">+Author : User</text><text fill="#000000" font-family="sans-serif" font-size="14" lengthAdjust="spacing" textLength="95.9697" x="295.5" y="425.5889">+Title : string</text><text fill="#000000" font-family="sans-serif" font-size="14" lengthAdjust="spacing" textLength="131.8174" x="295.5" y="441.8857">+TextBody : string</text><text fill="#000000" font-family="sans-serif" font-size="14" lengthAdjust="spacing" textLength="139.1729" x="295.5" y="458.1826">+PostImage : string</text><text fill="#000000" font-family="sans-serif" font-size="14" lengthAdjust="spacing" textLength="109.0947" x="295.5" y="474.4795">+PostLikes : int</text><text fill="#000000" font-family="sans-serif" font-size="14" lengthAdjust="spacing" textLength="164.2813" x="295.5" y="490.7764">+CreatedAt : DateTime</text><text fill="#000000" font-family="sans-serif" font-size="14" lengthAdjust="spacing" textLength="151.0127" x="295.5" y="507.0732">+LocationTag : string</text><text fill="#000000" font-family="sans-serif" font-size="14" lengthAdjust="spacing" textLength="217.7588" x="295.5" y="523.3701">+Comments : List&lt;Comment&gt;</text><line style="stroke:#181818;stroke-width:1;" x1="290.5" x2="563.3691" y1="530.6719" y2="530.6719"/><text fill="#000000" font-family="sans-serif" font-size="14" lengthAdjust="spacing" textLength="80.8555" x="295.5" y="547.667">+LikePost()</text><text fill="#000000" font-family="sans-serif" font-size="14" lengthAdjust="spacing" textLength="262.8691" x="295.5" y="563.9639">+AddComment(comment: Comment)</text></g><!--class Comment--><g class="entity" data-qualified-name="Comment" data-source-line="50" id="ent0006"><rect fill="#F1F1F1" height="129.4844" rx="2.5" ry="2.5" style="stroke:#181818;stroke-width:0.5;" width="181.4697" x="440.5" y="648"/><ellipse cx="492.689" cy="664" fill="#C2C2C2" rx="11" ry="11" style="stroke:#181818;stroke-width:1;"/><path d="M495.6577,669.6406 Q495.0796,669.9375 494.439,670.0781 Q493.7983,670.2344 493.0952,670.2344 Q490.5952,670.2344 489.2671,668.5938 Q487.9546,666.9375 487.9546,663.8125 Q487.9546,660.6875 489.2671,659.0313 Q490.5952,657.375 493.0952,657.375 Q493.7983,657.375 494.439,657.5313 Q495.0952,657.6875 495.6577,657.9844 L495.6577,660.7031 Q495.0327,660.125 494.439,659.8594 Q493.8452,659.5781 493.2202,659.5781 Q491.8765,659.5781 491.189,660.6563 Q490.5015,661.7188 490.5015,663.8125 Q490.5015,665.9063 491.189,666.9844 Q491.8765,668.0469 493.2202,668.0469 Q493.8452,668.0469 494.439,667.7813 Q495.0327,667.5 495.6577,666.9219 L495.6577,669.6406 Z " fill="#000000"/><text fill="#000000" font-family="sans-serif" font-size="14" lengthAdjust="spacing" textLength="68.5918" x="513.189" y="668.8467">Comment</text><line style="stroke:#181818;stroke-width:0.5;" x1="441.5" x2="620.9697" y1="680" y2="680"/><text fill="#000000" font-family="sans-serif" font-size="14" lengthAdjust="spacing" textLength="70.8613" x="446.5" y="696.9951">+Id : Guid</text><text fill="#000000" font-family="sans-serif" font-size="14" lengthAdjust="spacing" textLength="100.6523" x="446.5" y="713.292">+PostId : Guid</text><text fill="#000000" font-family="sans-serif" font-size="14" lengthAdjust="spacing" textLength="104.3916" x="446.5" y="729.5889">+Author : User</text><text fill="#000000" font-family="sans-serif" font-size="14" lengthAdjust="spacing" textLength="169.4697" x="446.5" y="745.8857">+CommentBody : string</text><text fill="#000000" font-family="sans-serif" font-size="14" lengthAdjust="spacing" textLength="164.2813" x="446.5" y="762.1826">+CreatedAt : DateTime</text><line style="stroke:#181818;stroke-width:0.5;" x1="441.5" x2="620.9697" y1="769.4844" y2="769.4844"/></g><!--link User to Post--><g class="link" data-entity-1="ent0003" data-entity-2="ent0005" data-link-type="association" data-source-line="59" id="lnk7"><path codeLine="59" d="M393.95,267.42 C396.47,277.39 398.85,287.34 401,297 C404.35,312.06 407.46,328.02 410.28,343.78" fill="none" id="User-Post" style="stroke:#181818;stroke-width:1;"/><polygon fill="#000000" points="410.0456,310.4558,411.028,300.9962,405.2801,302.2254,410.0456,310.4558" style="stroke:#000000;stroke-width:1;"/><text fill="#000000" font-family="sans-serif" font-size="13" lengthAdjust="spacing" textLength="50.2544" x="418" y="310.0669">Creates</text><text fill="#000000" font-family="sans-serif" font-size="13" lengthAdjust="spacing" textLength="8.271" x="387.813" y="287.0369">1</text><text fill="#000000" font-family="sans-serif" font-size="13" lengthAdjust="spacing" textLength="6.5" x="403.0369" y="333.077">*</text></g><!--reverse link Post to Comment--><g class="link" data-entity-1="ent0005" data-entity-2="ent0006" data-link-type="composition" data-source-line="60" id="lnk8"><path codeLine="60" d="M477.933,582.4086 C488.713,608.6286 495.26,624.55 504.81,647.78" fill="none" id="Post-backto-Comment" style="stroke:#181818;stroke-width:1;"/><polygon fill="#181818" points="473.37,571.31,471.952,578.3803,477.933,582.4086,479.351,575.3383,473.37,571.31" style="stroke:#181818;stroke-width:1;"/><polygon fill="#000000" points="498.9013,614.1908,498.18,604.7076,492.7437,606.9427,498.9013,614.1908" style="stroke:#000000;stroke-width:1;"/><text fill="#000000" font-family="sans-serif" font-size="13" lengthAdjust="spacing" textLength="56.9575" x="506" y="614.0669">Contains</text><text fill="#000000" font-family="sans-serif" font-size="13" lengthAdjust="spacing" textLength="8.271" x="468.0972" y="591.1441">1</text><text fill="#000000" font-family="sans-serif" font-size="13" lengthAdjust="spacing" textLength="6.5" x="495.619" y="636.9286">*</text></g><!--link Comment to User--><g class="link" data-entity-1="ent0006" data-entity-2="ent0003" data-link-type="association" data-source-line="61" id="lnk9"><path codeLine="61" d="M559.94,647.94 C563.94,638.02 567.78,627.81 571,618 C609,502.2 631.23,455.49 582,344 C569.67,316.07 551.48,290.3 530.68,267.12" fill="none" id="Comment-User" style="stroke:#181818;stroke-width:1;"/><polygon fill="#000000" points="614.617,452.5811,612.3796,461.8248,618.2402,461.3745,614.617,452.5811" style="stroke:#000000;stroke-width:1;"/><text fill="#000000" font-family="sans-serif" font-size="13" lengthAdjust="spacing" textLength="68.3198" x="624" y="462.0669">Written by</text><text fill="#000000" font-family="sans-serif" font-size="13" lengthAdjust="spacing" textLength="6.5" x="556.7788" y="637.1061">*</text><text fill="#000000" font-family="sans-serif" font-size="13" lengthAdjust="spacing" textLength="8.271" x="532.0204" y="286.7205">1</text></g><!--link User to FriendRequest--><g class="link" data-entity-1="ent0003" data-entity-2="ent0004" data-link-type="association" data-source-line="62" id="lnk10"><path codeLine="62" d="M175.73,256.57 C146.12,276.88 124.21,292.84 122,297 C106.48,326.32 111.21,362.5 120.83,392.98" fill="none" id="User-FriendRequest" style="stroke:#181818;stroke-width:1;"/><polygon fill="#000000" points="125.1332,310.2048,131.2367,302.9111,125.7839,300.7166,125.1332,310.2048" style="stroke:#000000;stroke-width:1;"/><text fill="#000000" font-family="sans-serif" font-size="13" lengthAdjust="spacing" textLength="93.3486" x="136" y="310.0669">Sends request</text><text fill="#000000" font-family="sans-serif" font-size="13" lengthAdjust="spacing" textLength="8.271" x="159.961" y="258.3706">1</text><text fill="#000000" font-family="sans-serif" font-size="13" lengthAdjust="spacing" textLength="6.5" x="111.3351" y="382.1505">*</text></g><!--link User to FriendRequest--><g class="link" data-entity-1="ent0003" data-entity-2="ent0004" data-link-type="association" data-source-line="63" id="lnk11"><path codeLine="63" d="M272.51,267.09 C244.52,310.37 214.53,356.74 191.23,392.76" fill="none" id="User-FriendRequest-1" style="stroke:#181818;stroke-width:1;"/><polygon fill="#000000" points="255.2846,309.7648,262.6646,303.7659,257.7291,300.5738,255.2846,309.7648" style="stroke:#000000;stroke-width:1;"/><text fill="#000000" font-family="sans-serif" font-size="13" lengthAdjust="spacing" textLength="112.0869" x="267" y="310.0669">Receives request</text><text fill="#000000" font-family="sans-serif" font-size="13" lengthAdjust="spacing" textLength="8.271" x="259.4587" y="287.1192">1</text><text fill="#000000" font-family="sans-serif" font-size="13" lengthAdjust="spacing" textLength="6.5" x="189.4351" y="381.9064">*</text></g><?plantuml-src ZLFBRjim4BphAnQ-r4qGeBqIGG0bHWiZFXYsYvuPQgiiB98EkGgQ5ldtaXIjMBA0-YHoEBkpZv7Vapb89pMeHdfVCZjwQXcNofej_K7uKlYUegsnwjbPZS2knQ90qshOu4kBdhSikVNmjm1Oewd8rE5KAeK7nYeS5wWQCk7uNXH92tvuT8b_3SiA17nlgKgt-61aK17WGpqfqpMidVr53Qv9JU8BzEC7wza7Q4MUR-FbBi5RDFpDKQWnLzvp1cX7tg12UiNgme2RcnnLXsTqyy_fkh8rcNmEwiDaSzT9E97wxbZTtCQyz1KmW3j-7kxb0HlKzZNpvwt_KE-tCmYQN5Di1TqGo_CQeTaROkYLVXibXwU5PDoHneyAuiecXSkMdws3hkI4x8YRaLrs-9llRVLsxecbbZMUmolQOwoH32VimM4egHeMrwrJIIPhTh8UPdcmMeTsUdla-uaneaRKocOegofpvghxYcEIaqraP78KgP__32V7dmzZiiCW-maUvK5vsqYs-oBzfhEliz03pAvctLf43lPmLoGW4guourXmRCQm91DPHp0I8Y_mKsO1Fnqneu6djq0RgmrjA9BfF6HhNy3FXZm9-GS0?></g></svg>